<?xml version="1.0" encoding="UTF-8"?>
<svg id="Layer_2" data-name="Layer 2" xmlns="http://www.w3.org/2000/svg" viewBox="0 0 136.19 143.07">
  <defs>
    <style>
      .cls-1 {
        fill: #ffd600;
        stroke: #ffd600;
      }

      .cls-1, .cls-2, .cls-3, .cls-4 {
        stroke-linecap: round;
        stroke-linejoin: round;
        stroke-width: 1.26px;
      }

      .cls-2 {
        fill: #f9429e;
      }

      .cls-2, .cls-3, .cls-4 {
        stroke: #1e2852;
      }

      .cls-5 {
        fill: #1e2852;
      }

      .cls-3 {
        fill: none;
      }

      .cls-4 {
        fill: #fff;
      }
    </style>
  </defs>
  <g id="OBJECTS">
    <g>
      <g>
        <g>
          <rect class="cls-4" x=".63" y="10.82" width="134.93" height="119.26" rx="19.73" ry="19.73"/>
          <g>
            <rect class="cls-2" x=".63" y=".63" width="134.93" height="119.26" rx="19.73" ry="19.73"/>
            <line class="cls-4" x1=".63" y1="25.54" x2="135.56" y2="25.54"/>
          </g>
        </g>
        <g>
          <g>
            <rect class="cls-1" x="9.36" y="36.68" width="114.62" height="71.72" rx="35.86" ry="35.86"/>
            <g>
              <g>
                <path class="cls-5" d="m53.92,68.85v-3.85h-5.08v-2.12l2.64-11.3h2l-2.52,11.62h2.96v-5.62h2.1v5.62h1.85v1.8h-1.85v3.85h-2.1Z"/>
                <path class="cls-5" d="m69.94,67.77c-.75.72-1.76,1.07-3.02,1.07h-.49c-1.27,0-2.27-.36-3.02-1.07-.75-.71-1.12-1.75-1.12-3.12v-8.88c0-1.38.37-2.43,1.11-3.13.74-.71,1.75-1.06,3.03-1.06h.49c1.28,0,2.29.35,3.03,1.06.74.71,1.11,1.75,1.11,3.13v8.88c0,1.37-.37,2.41-1.12,3.12Zm-1.55-13.79c-.39-.37-.88-.55-1.47-.55h-.49c-.59,0-1.08.18-1.47.55-.39.37-.58.81-.58,1.32v6.68l4.59-6.68c0-.51-.19-.95-.58-1.32Zm-3.43,12.46c.39.37.88.56,1.47.56h.49c.59,0,1.08-.19,1.47-.56.39-.37.58-.81.58-1.32v-6.66l-4.59,6.66c0,.51.19.95.58,1.32Z"/>
                <path class="cls-5" d="m80.56,68.85v-3.85h-5.08v-2.12l2.64-11.3h2l-2.52,11.62h2.96v-5.62h2.1v5.62h1.85v1.8h-1.85v3.85h-2.1Z"/>
              </g>
              <g>
                <path class="cls-5" d="m26.66,87.58h-1.49v-12.85h2.61l2.9,11.49v-11.49h1.49v12.85h-2.62l-2.88-11.49v11.49Z"/>
                <path class="cls-5" d="m41.41,86.8c-.57.52-1.39.78-2.45.78h-.73c-1.06,0-1.88-.26-2.45-.78-.57-.52-.85-1.3-.85-2.34v-6.61c0-1.04.28-1.82.85-2.34.57-.52,1.39-.78,2.45-.78h.73c1.06,0,1.88.26,2.45.78.57.52.85,1.3.85,2.34v6.61c0,1.04-.29,1.82-.85,2.34Zm-1.17-10.27c-.28-.27-.65-.4-1.1-.4h-1.1c-.45,0-.82.13-1.1.4-.28.27-.42.59-.42.97v7.3c0,.38.14.7.42.97.28.27.65.4,1.1.4h1.1c.45,0,.82-.13,1.1-.4.28-.27.42-.59.42-.97v-7.3c0-.38-.14-.7-.42-.97Z"/>
                <path class="cls-5" d="m47.69,87.58v-11.45h-2.92v-1.39h7.43v1.39h-2.92v11.45h-1.6Z"/>
                <path class="cls-5" d="m67.68,80.46v1.34h-4.07v5.78h-1.6v-12.85h6.13v1.34h-4.53v4.39h4.07Z"/>
                <path class="cls-5" d="m77.74,86.8c-.57.52-1.39.78-2.45.78h-.73c-1.06,0-1.88-.26-2.45-.78-.57-.52-.85-1.3-.85-2.34v-6.61c0-1.04.28-1.82.85-2.34.57-.52,1.39-.78,2.45-.78h.73c1.06,0,1.88.26,2.45.78.57.52.85,1.3.85,2.34v6.61c0,1.04-.29,1.82-.85,2.34Zm-1.17-10.27c-.28-.27-.65-.4-1.1-.4h-1.1c-.45,0-.82.13-1.1.4-.28.27-.42.59-.42.97v7.3c0,.38.14.7.42.97.28.27.65.4,1.1.4h1.1c.45,0,.82-.13,1.1-.4.28-.27.42-.59.42-.97v-7.3c0-.38-.14-.7-.42-.97Z"/>
                <path class="cls-5" d="m87.51,86.8c-.57.52-1.38.78-2.45.78h-.46c-1.06,0-1.88-.26-2.45-.78-.57-.52-.85-1.3-.85-2.34v-9.73h1.6v10.08c0,.38.14.7.42.97.28.27.65.4,1.1.4h.83c.45,0,.82-.13,1.1-.4.28-.27.42-.59.42-.97v-10.08h1.6v9.73c0,1.04-.28,1.82-.85,2.34Z"/>
                <path class="cls-5" d="m92.73,87.58h-1.49v-12.85h2.61l2.9,11.49v-11.49h1.49v12.85h-2.62l-2.88-11.49v11.49Z"/>
                <path class="cls-5" d="m107.38,86.92c-.48.44-1.28.66-2.4.66h-3.78v-12.85h3.56c1.1,0,1.93.22,2.5.67.56.45.84,1.18.84,2.19v7.08c0,1.05-.24,1.8-.72,2.24Zm-1.24-10.45c-.24-.24-.57-.36-.97-.36h-2.37v10.09h2.35c.46,0,.81-.11,1.03-.32.22-.21.33-.55.33-1.02v-7.43c0-.4-.12-.72-.37-.96Z"/>
              </g>
            </g>
          </g>
          <g>
            <g>
              <path class="cls-1" d="m21.11,13.52c0,2.45-1.99,4.44-4.44,4.44s-4.44-1.99-4.44-4.44,1.99-4.44,4.44-4.44,4.44,1.99,4.44,4.44Z"/>
              <path class="cls-1" d="m35.68,13.52c0,2.45-1.99,4.44-4.44,4.44s-4.44-1.99-4.44-4.44,1.99-4.44,4.44-4.44,4.44,1.99,4.44,4.44Z"/>
              <path class="cls-1" d="m50.24,13.52c0,2.45-1.99,4.44-4.44,4.44s-4.44-1.99-4.44-4.44,1.99-4.44,4.44-4.44,4.44,1.99,4.44,4.44Z"/>
            </g>
            <path class="cls-1" d="m122.05,15.38l-1.86-1.86,1.86-1.86c.82-.82.82-2.15,0-2.97-.82-.82-2.15-.82-2.97,0l-1.86,1.86-1.86-1.86c-.82-.82-2.15-.82-2.97,0-.82.82-.82,2.15,0,2.97l1.86,1.86-1.86,1.86c-.82.82-.82,2.15,0,2.97.82.82,2.15.82,2.97,0l1.86-1.86,1.86,1.86c.82.82,2.15.82,2.97,0s.82-2.15,0-2.97Z"/>
          </g>
        </g>
      </g>
      <g>
        <g>
          <path class="cls-4" d="m107.79,95.87h0c-2.04.65-3.16,2.83-2.51,4.87-.65-2.04-2.83-3.16-4.87-2.51-2.04.65-3.16,2.83-2.51,4.87l-2.35-7.36c-.88-2.75-3.82-4.27-6.57-3.39-2.75.88-4.27,3.82-3.39,6.57l6.82,21.33-8.79-11.73c-1.28-1.71-3.71-2.06-5.42-.78h0c-1.71,1.28-2.06,3.71-.78,5.42l16.15,22.73,13.67-4.37c8.03-2.57,12.45-11.15,9.89-19.18h0s-4.46-13.97-4.46-13.97c-.65-2.04-2.83-3.16-4.87-2.51Z"/>
          <line class="cls-3" x1="97.9" y1="103.1" x2="100.35" y2="110.77"/>
          <line class="cls-3" x1="105.28" y1="100.74" x2="107.73" y2="108.41"/>
        </g>
        <rect class="cls-4" x="90.91" y="130.63" width="26.79" height="8.97" rx="3.98" ry="3.98" transform="translate(-36.18 38.17) rotate(-17.72)"/>
      </g>
    </g>
  </g>
</svg>