<?xml version="1.0" encoding="UTF-8"?>
<svg id="Layer_2" data-name="Layer 2" xmlns="http://www.w3.org/2000/svg" viewBox="0 0 285.28 141.97">
  <defs>
    <style>
      .cls-1 {
        fill: #fff;
      }
    </style>
  </defs>
  <g id="Ebene_1" data-name="Ebene 1">
    <g>
      <path class="cls-1"
        d="m0,82.59c0-13.25,4.44-27.56,13.39-43.33l14.81-26.06C33.42,4,40.02,0,49.94,0h37.82c8.55,0,11.94,2.79,13.41,6.65,1.41,3.7.26,7.78-3.8,13.7l-5.11,7.45c25.82,6.02,41.78,26.12,41.78,52.73,0,35.46-28.36,61.44-67.07,61.44S0,117.46,0,82.59Z" />
      <path class="cls-1"
        d="m147.91,118.81V19.8c0-12.87,6.93-19.8,19.8-19.8h91.54c15.5,0,21.42,9.76,14.26,23.52l-20.46,39.27,28.91,52.18c7.6,13.7,1.74,23.64-13.92,23.64h-100.33c-12.87,0-19.8-6.93-19.8-19.8Z" />
    </g>
  </g>
</svg>