<svg xmlns="http://www.w3.org/2000/svg" viewBox="0 0 258.33 38.1"><defs><style>.cls-1{fill:#fff;}</style></defs><g id="Layer_2" data-name="Layer 2"><g id="Layer_1-2" data-name="Layer 1"><path class="cls-1" d="M22.93,38a29.81,29.81,0,0,1-9.18-1.35A22.65,22.65,0,0,1,6.48,32.8a16.94,16.94,0,0,1-4.78-6A17.49,17.49,0,0,1,0,19.05a15.76,15.76,0,0,1,1.11-6,17.5,17.5,0,0,1,2.7-4.6A13,13,0,0,1,7.2,5.47a6.53,6.53,0,0,1,3.12-1,6,6,0,0,1,1.87.28,4.18,4.18,0,0,1,1.53.94,8.53,8.53,0,0,1,1.35,1.73,28.23,28.23,0,0,1,1.42,2.67l9.42,20a12.81,12.81,0,0,0,3.32,4.5,6.73,6.73,0,0,0,4.37,1.59,14.75,14.75,0,0,1-3.81,1.22A32,32,0,0,1,22.93,38Zm1.8-38a28.83,28.83,0,0,1,9.08,1.39,23.05,23.05,0,0,1,7.34,3.88,17.84,17.84,0,0,1,4.88,6,17,17,0,0,1,1.77,7.79V28.4a9.54,9.54,0,0,0,1.42,5.44,7.72,7.72,0,0,0,3.85,3H43.92a12.9,12.9,0,0,1-8.45-2.66,19.4,19.4,0,0,1-5.27-7L21.82,9.35C21.17,8,20.56,6.8,20,5.85a12.53,12.53,0,0,0-1.74-2.28,4.81,4.81,0,0,0-1.87-1.21A6.39,6.39,0,0,0,14.2,2,22.34,22.34,0,0,1,18,.73,25.93,25.93,0,0,1,24.73,0Z"/><path class="cls-1" d="M63.18,8.11A26.16,26.16,0,0,1,64.43,5c.32-.62.69-.93,1.1-.93.56,0,1,.48,1.39,1.45S67.68,7.67,68.1,9l5.61,17.31q.83,2.5,1.56,4.23a17.76,17.76,0,0,0,1.49,2.91,8.66,8.66,0,0,0,1.69,2,11,11,0,0,0,2.12,1.42H53.41Zm20.5-6.86a13.75,13.75,0,0,1,4.09.52,8.13,8.13,0,0,1,2.77,1.42,7.26,7.26,0,0,1,1.8,2.14,15.29,15.29,0,0,1,1.18,2.78l6.1,18.63q.55,1.74,1.14,3.36a16.7,16.7,0,0,0,1.39,3,9.13,9.13,0,0,0,2,2.35A6.74,6.74,0,0,0,107,36.85H90.61a12.23,12.23,0,0,1-4.22-.65,8.71,8.71,0,0,1-3.12-1.94A11.62,11.62,0,0,1,81,31.11a32.43,32.43,0,0,1-1.77-4.37L73.15,8.11c-.27-.93-.54-1.77-.79-2.53a10.73,10.73,0,0,0-.9-2,5,5,0,0,0-1.35-1.46,5.82,5.82,0,0,0-2.22-.86Zm25.91,0a13.21,13.21,0,0,1,4.19.55,8.08,8.08,0,0,1,2.71,1.49,6.83,6.83,0,0,1,1.69,2.22,19.92,19.92,0,0,1,1.11,2.8l6.1,18.43c.41,1.25.8,2.41,1.14,3.5a16.15,16.15,0,0,0,1.25,2.94,9.12,9.12,0,0,0,1.76,2.29,6,6,0,0,0,2.71,1.38H116.59a13.1,13.1,0,0,1-4.26-.62,8.79,8.79,0,0,1-3.19-1.87,11.57,11.57,0,0,1-2.35-3.15A24.78,24.78,0,0,1,105,26.74L98.92,8.11a25.79,25.79,0,0,0-.86-2.5,10.74,10.74,0,0,0-1-2A6.1,6.1,0,0,0,95.6,2.15a5.23,5.23,0,0,0-2.15-.9Z"/><path class="cls-1" d="M135.5,1.25a9.28,9.28,0,0,1,6.17,1.87,16.4,16.4,0,0,1,4,5.4l9.76,21.06c.42.88.82,1.71,1.22,2.49a8.4,8.4,0,0,0,1.35,2,6.08,6.08,0,0,0,1.76,1.35,6,6,0,0,0,2.53.59,9.27,9.27,0,0,1-1.8.73,23.94,23.94,0,0,1-2.7.69,32.74,32.74,0,0,1-3.29.49c-1.18.11-2.37.17-3.57.17a37.08,37.08,0,0,1-7.79-.79,17.13,17.13,0,0,1-6.48-2.81,13.9,13.9,0,0,1-4.4-5.47,20.79,20.79,0,0,1-1.63-8.8V6.1q0-4.15-3.18-4.85Zm31.52,0a8.84,8.84,0,0,1,3.26.52,5.69,5.69,0,0,1,2.15,1.42,5.48,5.48,0,0,1,1.21,2.11A8.74,8.74,0,0,1,174,7.9V32a7.62,7.62,0,0,0,.1,1.1,5,5,0,0,0,.45,1.42,4.48,4.48,0,0,0,2.71,2.32h-6a9.52,9.52,0,0,1-3.81-.72,10.78,10.78,0,0,1-3-1.94,14.67,14.67,0,0,1-2.36-2.84,30.53,30.53,0,0,1-1.87-3.43L151,7.76a21.9,21.9,0,0,0-2.7-4.54,5.48,5.48,0,0,0-3.81-2Z"/><path class="cls-1" d="M206.23,1.25a14.83,14.83,0,0,0-2.18.62A8.29,8.29,0,0,0,202,3a6,6,0,0,0-1.56,1.73,4.79,4.79,0,0,0-.62,2.49,7.6,7.6,0,0,0,.8,3.09c.53,1.18,1.17,2.43,1.94,3.77s1.6,2.74,2.52,4.19,1.77,2.9,2.53,4.33a42.25,42.25,0,0,1,1.94,4.16,10.25,10.25,0,0,1,.8,3.74,6.33,6.33,0,0,1-1.7,4.68,6.5,6.5,0,0,1-4.81,1.69H181.43c.69-.13,1.44-.32,2.25-.55a8.6,8.6,0,0,0,2.29-1,5.29,5.29,0,0,0,2.46-4.78,11.37,11.37,0,0,0-1.53-5q-1.52-2.94-3.36-6.17t-3.36-6.47a14.3,14.3,0,0,1-1.52-6A6.31,6.31,0,0,1,179,4.81a5,5,0,0,1,1.1-1.8,5.61,5.61,0,0,1,2-1.28,8.56,8.56,0,0,1,3-.48Z"/><path class="cls-1" d="M235.19,38.1a27.7,27.7,0,0,1-9.08-1.45,23.88,23.88,0,0,1-7.34-4,18.64,18.64,0,0,1-4.92-6,16.33,16.33,0,0,1-1.8-7.59,16.35,16.35,0,0,1,1.07-6,17.39,17.39,0,0,1,2.64-4.6,12.74,12.74,0,0,1,3.32-2.95,6.43,6.43,0,0,1,3.15-1,5.2,5.2,0,0,1,3.5,1.22,13.43,13.43,0,0,1,3,4.46L238,29.58a16.72,16.72,0,0,0,3.12,4.75,5.63,5.63,0,0,0,4.15,1.76,33.84,33.84,0,0,1-3.53,1.22A23.17,23.17,0,0,1,235.19,38.1ZM236.44,0a28.33,28.33,0,0,1,9.42,1.45,23.38,23.38,0,0,1,6.85,3.68,15.54,15.54,0,0,1,4.2,5,11.55,11.55,0,0,1,1.42,5.3,11.14,11.14,0,0,1-.11,1.42,5,5,0,0,1-.41,1.45,3.61,3.61,0,0,1-.87,1.15,2.13,2.13,0,0,1-1.45.48H233.11a5.39,5.39,0,0,0,2.63-1.45,3.73,3.73,0,0,0,.76-2.5,7.82,7.82,0,0,0-.83-3q-.82-1.87-2.49-5.2A15.83,15.83,0,0,0,230,3.05a6,6,0,0,0-3.25-1.46,23.9,23.9,0,0,1,3.15-.93A27.15,27.15,0,0,1,236.44,0Z"/></g></g></svg>