<svg version="1.1" xmlns="http://www.w3.org/2000/svg" xmlns:xlink="http://www.w3.org/1999/xlink" viewBox="0 0 172 172"
    width="172" height="172">
    <g fill="none" fill-rule="nonzero" stroke="none" stroke-width="1" stroke-linecap="butt" stroke-linejoin="miter"
        stroke-miterlimit="10" stroke-dasharray="" stroke-dashoffset="0" font-family="none" font-weight="none"
        font-size="none" text-anchor="none" style="mix-blend-mode: normal">
        <path d="M0,172v-172h172v172z" fill="none"></path>
        <g fill="#fff">
            <path
                d="M129,17.2c-6.60337,0 -13.20468,2.52186 -18.24141,7.55859l-18.87968,18.87969l-1.82526,-1.82526c-1.07942,-1.10959 -2.56163,-1.73559 -4.10964,-1.73568c-2.33303,0.00061 -4.43306,1.41473 -5.31096,3.57628c-0.8779,2.16155 -0.3586,4.6395 1.31331,6.26668l1.67969,1.67969l-47.54636,47.54636c-6.74685,6.74685 -8.67839,14.13177 -10.11172,19.8651c-1.43333,5.73333 -2.36847,9.81508 -7.08828,14.5349c-2.23811,2.23904 -2.23811,5.86825 0,8.10729l11.46667,11.46667c2.23904,2.23811 5.86825,2.23811 8.10729,0c4.71981,-4.71981 8.80156,-5.65495 14.5349,-7.08828c5.73334,-1.43333 13.11825,-3.36486 19.8651,-10.11172l47.54636,-47.54636l1.67969,1.67969c1.43802,1.49778 3.5734,2.10113 5.5826,1.57735c2.0092,-0.52378 3.57826,-2.09284 4.10204,-4.10204c0.52378,-2.0092 -0.07957,-4.14458 -1.57735,-5.5826l-1.82526,-1.82526l18.87969,-18.87968c10.07347,-10.07347 10.07347,-26.40935 0,-36.48281c-5.03673,-5.03673 -11.63804,-7.55859 -18.24141,-7.55859zM91.73333,59.70729l20.55938,20.55938l-47.54636,47.54636c-4.71982,4.71981 -8.80156,5.65495 -14.5349,7.08828c-4.39445,1.09862 -9.74643,3.19259 -15.05,6.81953l-4.88229,-4.88229c3.62694,-5.30358 5.72092,-10.65555 6.81953,-15.05c1.43333,-5.73333 2.36847,-9.81508 7.08828,-14.5349z">
            </path>
        </g>
    </g>
</svg>