<svg width="117" height="77" viewBox="0 0 117 77" fill="none" xmlns="http://www.w3.org/2000/svg">
<mask id="mask0_28_8" style="mask-type:alpha" maskUnits="userSpaceOnUse" x="0" y="0" width="117" height="77">
<rect width="117" height="77" rx="10" fill="#D9D9D9"/>
</mask>
<g mask="url(#mask0_28_8)">
<path d="M58 110C97.7645 110 130 77.7645 130 38C130 -1.7645 97.7645 -34 58 -34C18.2355 -34 -14 -1.7645 -14 38C-14 77.7645 18.2355 110 58 110Z" fill="#C7C7C7"/>
<g filter="url(#filter0_b_28_8)">
<rect x="8" y="7" width="53.325" height="53.325" rx="10" fill="white" fill-opacity="0.87"/>
<rect x="65.275" y="7" width="140.225" height="31.6" rx="6" fill="white" fill-opacity="0.87"/>
<rect x="72.0316" y="12.821" width="77.3368" height="7.48421" rx="3.74211" fill="black" fill-opacity="0.9"/>
<rect x="72" y="26" width="39" height="7" rx="3.5" fill="black" fill-opacity="0.9"/>
<rect x="8" y="64.275" width="197.5" height="5.925" rx="2.9625" fill="white" fill-opacity="0.87"/>
<path d="M8 67.2297C8 65.5728 9.34315 64.2297 11 64.2297H93C94.6569 64.2297 96 65.5728 96 67.2297V67.2297C96 68.8865 94.6569 70.2297 93 70.2297H11C9.34315 70.2297 8 68.8865 8 67.2297V67.2297Z" fill="black" fill-opacity="0.9"/>
<rect x="65.275" y="42.55" width="140.225" height="17.775" rx="6" fill="white" fill-opacity="0.87"/>
<rect x="71.2" y="48.4751" width="17.775" height="5.925" rx="2.9625" fill="black" fill-opacity="0.9"/>
<path d="M29.75 23C28.3227 23 27.1667 24.156 27.1667 25.5833V38.727C26.7521 38.5785 26.3153 38.5017 25.875 38.5C23.7349 38.5 22 40.2349 22 42.375C22 44.5151 23.7349 46.25 25.875 46.25C28.0151 46.25 29.75 44.5151 29.75 42.375V32.0417C29.75 31.3287 30.3287 30.75 31.0417 30.75H40.0833C40.7963 30.75 41.375 31.3287 41.375 32.0417V38.7271C40.9605 38.5785 40.5237 38.5017 40.0833 38.5C37.9432 38.5 36.2083 40.2349 36.2083 42.375C36.2083 44.5151 37.9432 46.25 40.0833 46.25C42.2234 46.25 43.9583 44.5151 43.9583 42.375V25.5833C43.9583 24.156 42.8023 23 41.375 23L29.75 23Z" fill="black" fill-opacity="0.9"/>
</g>
</g>
<defs>
<filter id="filter0_b_28_8" x="4" y="3" width="205.5" height="71.2297" filterUnits="userSpaceOnUse" color-interpolation-filters="sRGB">
<feFlood flood-opacity="0" result="BackgroundImageFix"/>
<feGaussianBlur in="BackgroundImageFix" stdDeviation="2"/>
<feComposite in2="SourceAlpha" operator="in" result="effect1_backgroundBlur_28_8"/>
<feBlend mode="normal" in="SourceGraphic" in2="effect1_backgroundBlur_28_8" result="shape"/>
</filter>
</defs>
</svg>
