<svg width="30" height="30" viewBox="0 0 30 30" fill="none" xmlns="http://www.w3.org/2000/svg">
<rect width="30" height="30" rx="2" fill="#E6E6E6"/>
<path d="M18.6247 22.2486C19.6251 23.2489 21.2482 23.2498 22.2494 22.2486C23.2506 21.2473 23.2498 19.6251 22.2494 18.6239C22.0504 18.4257 20.1795 16.5548 18.6247 15C20.1795 13.4452 22.0504 11.5743 22.2494 11.3753C23.2498 10.3749 23.2506 8.75181 22.2494 7.75059C21.249 6.75023 19.6259 6.75023 18.6247 7.75059C18.4257 7.94964 16.5548 9.82051 15 11.3753C13.4452 9.82051 11.5743 7.94964 11.3753 7.75059C10.3749 6.75023 8.75181 6.74938 7.75059 7.75059C6.74938 8.75181 6.75023 10.3741 7.75059 11.3753C7.94878 11.5735 9.82051 13.4452 11.3753 15C9.82051 16.5548 7.94964 18.4257 7.75059 18.6247C6.75023 19.6251 6.75023 21.2482 7.75059 22.2494C8.75181 23.2506 10.3741 23.2498 11.3753 22.2494C11.5735 22.0512 13.4452 20.1795 15 18.6247C16.5548 20.1795 18.4257 22.0504 18.6247 22.2486Z" fill="#ADADAD"/>
</svg>
