<svg version="1.1" xmlns="http://www.w3.org/2000/svg" xmlns:xlink="http://www.w3.org/1999/xlink" viewBox="0 0 172 172"
    width="172" height="172">
    <g fill="none" fill-rule="nonzero" stroke="none" stroke-width="1" stroke-linecap="butt" stroke-linejoin="miter"
        stroke-miterlimit="10" stroke-dasharray="" stroke-dashoffset="0" font-family="none" font-weight="none"
        font-size="none" text-anchor="none" style="mix-blend-mode: normal">
        <path d="M0,172v-172h172v172z" fill="none"></path>
        <g fill="#f2cc00">
            <path
                d="M112.875,146.91667c-2.33275,0 -4.40392,-1.50858 -5.117,-3.73025l-10.48842,-32.62267l-32.62267,-10.48842c-2.22167,-0.71308 -3.73025,-2.78425 -3.73025,-5.117c0,-2.33275 1.50858,-4.40392 3.73025,-5.117l32.62267,-10.48842l10.48842,-32.62267c0.71308,-2.22167 2.78425,-3.73025 5.117,-3.73025c2.33275,0 4.40392,1.50858 5.117,3.73025l10.48842,32.62267l32.62267,10.48842c2.22167,0.71308 3.73025,2.78425 3.73025,5.117c0,2.33275 -1.50858,4.40392 -3.73025,5.117l-32.62267,10.48842l-10.48842,32.62267c-0.71308,2.22167 -2.78425,3.73025 -5.117,3.73025zM43,82.41667c-2.31483,0 -4.36808,-1.47992 -5.09908,-3.67292l-6.76533,-20.296l-20.296,-6.76533c-2.193,-0.731 -3.67292,-2.78425 -3.67292,-5.09908c0,-2.31483 1.47992,-4.36808 3.67292,-5.09908l20.296,-6.76533l6.76533,-20.296c0.731,-2.193 2.78425,-3.67292 5.09908,-3.67292c2.31483,0 4.36808,1.47992 5.09908,3.67292l6.76533,20.296l20.296,6.76533c2.193,0.731 3.67292,2.78425 3.67292,5.09908c0,2.31483 -1.47992,4.36808 -3.67292,5.09908l-20.296,6.76533l-6.76533,20.296c-0.731,2.193 -2.78425,3.67292 -5.09908,3.67292zM37.625,161.25c-2.31483,0 -4.36808,-1.47992 -5.09908,-3.67292l-5.42517,-16.26475l-16.26117,-5.42158c-2.193,-0.731 -3.67292,-2.78425 -3.67292,-5.09908c0,-2.31483 1.47992,-4.36808 3.67292,-5.09908l16.26117,-5.42158l5.42517,-16.26475c0.731,-2.193 2.78425,-3.67292 5.09908,-3.67292v0c2.31483,0 4.36808,1.47992 5.09908,3.67292l5.42158,16.26475l16.26475,5.42158c2.193,0.731 3.67292,2.78425 3.67292,5.09908c0,2.31483 -1.47992,4.36808 -3.67292,5.09908l-16.26475,5.42158l-5.42158,16.26475c-0.731,2.193 -2.78425,3.67292 -5.09908,3.67292z">
            </path>
        </g>
    </g>
</svg>