<svg width="31" height="31" viewBox="0 0 31 31" fill="none" xmlns="http://www.w3.org/2000/svg">
<rect width="31" height="31" rx="2" fill="#E6E6E6"/>
<path d="M19.6457 10H10.3543C9.44528 10 8.70587 10.7394 8.70587 11.6485V18.542C8.70587 19.4511 9.44528 20.1905 10.3543 20.1905H19.6457C20.5547 20.1905 21.2942 19.4511 21.2942 18.542V11.6485C21.2942 10.7394 20.5547 10 19.6457 10V10ZM17.0894 15.6195L14.3919 17.1181C14.3014 17.1681 14.201 17.1933 14.1008 17.1933C13.9956 17.1933 13.8904 17.1657 13.7969 17.1106C13.6138 17.0027 13.5014 16.8061 13.5014 16.5939V13.5967C13.5014 13.3844 13.6138 13.1878 13.7969 13.0799C13.9798 12.9723 14.2063 12.9693 14.3919 13.0724L17.0894 14.571C17.2797 14.6768 17.3978 14.8774 17.3978 15.0953C17.3978 15.3132 17.2797 15.5137 17.0894 15.6195V15.6195Z" fill="#ADADAD"/>
</svg>
